<svg version="1.1" viewBox="0.0 0.0 480.0 480.0" fill="none" stroke="none" stroke-linecap="square" stroke-miterlimit="10" xmlns:xlink="http://www.w3.org/1999/xlink" xmlns="http://www.w3.org/2000/svg"><clipPath id="p.0"><path d="m0 0l480.0 0l0 480.0l-480.0 0l0 -480.0z" clip-rule="nonzero"/></clipPath><g clip-path="url(#p.0)"><path fill="#000000" fill-opacity="0.0" d="m0 0l480.0 0l0 480.0l-480.0 0z" fill-rule="evenodd"/><path fill="#ffffff" d="m0 128.5152l0 0c0 -70.97698 57.538216 -128.5152 128.5152 -128.5152l222.9696 0l0 0c34.08435 0 66.772705 13.539955 90.87396 37.64123c24.101288 24.101273 37.641235 56.789616 37.641235 90.87396l0 222.9696l0 0c0 70.97699 -57.538208 128.5152 -128.5152 128.5152l-222.9696 0l0 0c-70.97698 0 -128.5152 -57.538208 -128.5152 -128.5152z" fill-rule="evenodd"/><path fill="#000000" d="m65.22835 65.22835l174.77165 0l0 174.77165l-174.77165 0z" fill-rule="evenodd"/><path stroke="#ffffff" stroke-width="24.0" stroke-linejoin="round" stroke-linecap="butt" d="m65.22835 65.22835l174.77165 0l0 174.77165l-174.77165 0z" fill-rule="evenodd"/><path fill="#000000" d="m240.0 65.22835l174.77167 0l0 174.77165l-174.77167 0z" fill-rule="evenodd"/><path stroke="#ffffff" stroke-width="24.0" stroke-linejoin="round" stroke-linecap="butt" d="m240.0 65.22835l174.77167 0l0 174.77165l-174.77167 0z" fill-rule="evenodd"/><path fill="#000000" d="m240.0 240.0l174.77167 0l0 174.77167l-174.77167 0z" fill-rule="evenodd"/><path stroke="#ffffff" stroke-width="24.0" stroke-linejoin="round" stroke-linecap="butt" d="m240.0 240.0l174.77167 0l0 174.77167l-174.77167 0z" fill-rule="evenodd"/><path fill="#ffffff" d="m152.61417 152.61417l174.77167 0l0 174.77167l-174.77167 0z" fill-rule="evenodd"/><path fill="#000000" d="m65.22835 240.0l174.77165 0l0 174.77167l-174.77165 0z" fill-rule="evenodd"/><path stroke="#ffffff" stroke-width="24.0" stroke-linejoin="round" stroke-linecap="butt" d="m65.22835 240.0l174.77165 0l0 174.77167l-174.77165 0z" fill-rule="evenodd"/><path fill="#ffffff" d="m60.3937 212.69292l359.2126 0l0 54.61418l-359.2126 0z" fill-rule="evenodd"/><path fill="#ffffff" d="m267.3071 60.3937l0 359.2126l-54.61418 0l0 -359.2126z" fill-rule="evenodd"/></g></svg>