<svg version="1.1" viewBox="0.0 0.0 480.0 480.0" fill="none" stroke="none" stroke-linecap="square" stroke-miterlimit="10" xmlns:xlink="http://www.w3.org/1999/xlink" xmlns="http://www.w3.org/2000/svg"><clipPath id="p.0"><path d="m0 0l480.0 0l0 480.0l-480.0 0l0 -480.0z" clip-rule="nonzero"/></clipPath><g clip-path="url(#p.0)"><path fill="#000000" fill-opacity="0.0" d="m0 0l480.0 0l0 480.0l-480.0 0z" fill-rule="evenodd"/><path fill="#003845" d="m0 80.0016l0 0c0 -44.183666 35.817936 -80.0016 80.0016 -80.0016l319.99683 0l0 0c21.217743 0 41.566437 8.428716 56.56967 23.431927c15.003204 15.003208 23.431915 35.35193 23.431915 56.569675l0 319.99683c0 44.183655 -35.817932 80.00159 -80.00159 80.00159l-319.99683 0c-44.183666 0 -80.0016 -35.817932 -80.0016 -80.00159z" fill-rule="evenodd"/><path fill="#ffffff" d="m30.362206 240.0l209.63779 -209.63779l209.63779 209.63779l-209.63779 209.63779z" fill-rule="evenodd"/><path fill="#003845" d="m102.64567 240.0l137.35434 -137.35434l137.35434 137.35434l-137.35434 137.35434z" fill-rule="evenodd"/><path fill="#ffffff" d="m179.6378 240.0l60.362198 -60.362198l60.362213 60.362198l-60.362213 60.362213z" fill-rule="evenodd"/></g></svg>